# xmcd
#
# Track frame offsets:
#	150
#	15955
#	41420
#	59253
#	74958
#	89210
#	97875
#	109323
#	126603
#	138430
#	157093
#
# Disc length: 2278 seconds
#
# Revision: 0
# Processed by: cddbd v1.4PL0 Copyright (c) Steve Scherf et al.
# Submitted via: audiograbber 1.81.03
#
DISCID=a308e40b
DTITLE=John Hammond - Nobody But You
DYEAR=1987
DGENRE=Blues
TTITLE0=Ride Till I Die
TTITLE1=Sail On
TTITLE2=Diddly Daddy
TTITLE3=Memphis Town
TTITLE4=Lost Lover Blues
TTITLE5=Nobody But You
TTITLE6=Papa Wants A Cookie
TTITLE7=If I Get Lucky
TTITLE8=Move On Up The Line
TTITLE9=Killing Me On My Feet
TTITLE10=Mother In Law Blues
EXTD=
EXTT0=
EXTT1=
EXTT2=
EXTT3=
EXTT4=
EXTT5=
EXTT6=
EXTT7=
EXTT8=
EXTT9=
EXTT10=
PLAYORDER=
